# xmcd CD database file
#
# Track frame offsets:
#	150
#	10565
#	32105
#	46825
#	61337
#	74010
#	86870
#	102025
#	114857
#	128195
#	141012
#	156302
#	167850
#	184295
#	198120
#	212125
#	224125
#
# Disc length: 3173 seconds
#
# Revision: 5
# Processed by: cddbd v1.5.2PL0 Copyright (c) Steve Scherf et al.
# Submitted via: CDex 1.81
#
DISCID=f80c6311
DTITLE=Muddy Waters - Blues Anthology
DYEAR=1990
DGENRE=Blues
TTITLE0=Sugar Sweet
TTITLE1=Twenty Four Hours
TTITLE2=Still a Fool
TTITLE3=Baby, Please Don't Go
TTITLE4=All Aboard
TTITLE5=Louisiana Blues
TTITLE6=Standing Around Crying
TTITLE7=I'm Your Hoochie Coochie Man
TTITLE8=She Moves Me
TTITLE9=Just Make Love To Me
TTITLE10=Honey Bee
TTITLE11=You're Gonna Miss Me When I'm Dead and Gone
TTITLE12=Blow Wind Blow
TTITLE13=I'm Ready
TTITLE14=Rollin' Stone
TTITLE15=Long Distance Call
TTITLE16=Forty Days and Forty Nights
EXTD=YEAR: 1990
EXTT0=
EXTT1=
EXTT2=
EXTT3=
EXTT4=
EXTT5=
EXTT6=
EXTT7=
EXTT8=
EXTT9=
EXTT10=
EXTT11=
EXTT12=
EXTT13=
EXTT14=
EXTT15=
EXTT16=
PLAYORDER=
